<svg xmlns="http://www.w3.org/2000/svg" viewBox="0 0 360 200" width="720" height="400">
  <defs>
    <linearGradient id="grad" x1="0%" y1="0%" x2="100%" y2="100%">
      <stop offset="0%" stop-color="#7F52FF"/>
      <stop offset="100%" stop-color="#C811E2"/>
    </linearGradient>
    <linearGradient id="grad-dark" x1="0%" y1="0%" x2="100%" y2="100%">
      <stop offset="0%" stop-color="#6A3FE8"/>
      <stop offset="100%" stop-color="#A00DB8"/>
    </linearGradient>
  </defs>

  <!-- K Pac-Man body -->
  <path d="M100,100 L174,55 A88,88 0 1,0 174,145 Z" fill="url(#grad)"/>
  <path d="M100,100 L174,55 A88,88 0 1,0 174,145 Z" fill="none" stroke="rgba(0,0,0,0.08)" stroke-width="2"/>

  <!-- Eye: Kotlin K mark -->
  <circle cx="68" cy="72" r="18" fill="white"/>
  <path d="M57,60 L79,60 L68,72 L79,84 L57,84 Z" fill="url(#grad-dark)"/>

  <!-- "p" as vector path -->
  <circle cx="141" cy="100" r="8" fill="none" stroke="rgba(127,82,255,0.5)" stroke-width="2.5"/>
  <line x1="133" y1="92" x2="133" y2="114" stroke="rgba(127,82,255,0.5)" stroke-width="2.5" stroke-linecap="round"/>

  <!-- Mouth highlights -->
  <line x1="100" y1="100" x2="172" y2="57" stroke="rgba(255,255,255,0.15)" stroke-width="1.5" stroke-linecap="round"/>
  <line x1="100" y1="100" x2="172" y2="143" stroke="rgba(255,255,255,0.15)" stroke-width="1.5" stroke-linecap="round"/>

  <!-- KAP syntax being "eaten" — readable text via raw URL -->
  <text x="168" y="84" font-family="monospace" font-weight="700" font-size="11" fill="#C811E2" opacity="0.85">.with { f1() }</text>
  <text x="168" y="104" font-family="monospace" font-weight="700" font-size="11" fill="#C811E2" opacity="0.55">.then { f2() }</text>
  <text x="168" y="124" font-family="monospace" font-weight="700" font-size="11" fill="#C811E2" opacity="0.35">.andThen { ctx -> f3(ctx) }</text>
</svg>
